<?xml version="1.0" encoding="UTF-8" standalone="no"?>
<svg
   enable-background="new 0 0 64 64"
   height="47.806293"
   version="1.1"
   viewBox="0 0 49.510896 47.806294"
   width="49.510895"
   xml:space="preserve"
   id="svg1285"
   sodipodi:docname="mail.svg"
   inkscape:version="1.2.2 (732a01da63, 2022-12-09)"
   xmlns:inkscape="http://www.inkscape.org/namespaces/inkscape"
   xmlns:sodipodi="http://sodipodi.sourceforge.net/DTD/sodipodi-0.dtd"
   xmlns="http://www.w3.org/2000/svg"
   xmlns:svg="http://www.w3.org/2000/svg"><defs
     id="defs1289" /><sodipodi:namedview
     id="namedview1287"
     pagecolor="#ffffff"
     bordercolor="#000000"
     borderopacity="0.25"
     inkscape:showpageshadow="2"
     inkscape:pageopacity="0.0"
     inkscape:pagecheckerboard="0"
     inkscape:deskcolor="#d1d1d1"
     showgrid="false"
     inkscape:zoom="12.90625"
     inkscape:cx="23.050847"
     inkscape:cy="24.01937"
     inkscape:window-width="1920"
     inkscape:window-height="1013"
     inkscape:window-x="-9"
     inkscape:window-y="-9"
     inkscape:window-maximized="1"
     inkscape:current-layer="svg1285" /><g
     id="_x31_-Call"
     transform="translate(-7.283293,-8.0581114)" /><g
     id="_x32_-24_Hours_Call"
     transform="translate(-7.283293,-8.0581114)" /><g
     id="_x33_-Sending_Call"
     transform="translate(-7.283293,-8.0581114)" /><g
     id="_x34_-Incoming_Call"
     transform="translate(-7.283293,-8.0581114)" /><g
     id="_x35_-Talk_On_Phone"
     transform="translate(-7.283293,-8.0581114)" /><g
     id="_x36_-Block_Call"
     transform="translate(-7.283293,-8.0581114)" /><g
     id="_x37_-Hold_Call"
     transform="translate(-7.283293,-8.0581114)" /><g
     id="_x38_-Mute_Call"
     transform="translate(-7.283293,-8.0581114)" /><g
     id="_x39_-Phone_Book"
     transform="translate(-7.283293,-8.0581114)" /><g
     id="_x31_0-Add_Contact"
     transform="translate(-7.283293,-8.0581114)" /><g
     id="_x31_1-Delete_Contact"
     transform="translate(-7.283293,-8.0581114)" /><g
     id="_x31_2-Mail"
     transform="translate(-7.283293,-8.0581114)" /><g
     id="_x31_3-Message_Read"
     transform="translate(-7.283293,-8.0581114)" /><g
     id="_x31_4-Email"
     style="fill:#116466;fill-opacity:1"
     transform="translate(-7.283293,-8.0581114)"><g
       id="g1254"
       style="fill:#116466;fill-opacity:1"><polygon
         points="55.586487,49.354614 56,49.652649 56,26.586609 38.403809,36.971619 55.584961,49.352966 "
         id="polygon1240"
         style="fill:#116466;fill-opacity:1" /><path
         d="M 12.549988,17.470215 H 12.119995 C 9.8499756,17.470215 8,19.32019 8,21.59021 v 2.669983 l 4.549988,2.679993 z"
         id="path1242"
         style="fill:#116466;fill-opacity:1" /><path
         d="m 51.880005,17.470215 h -0.429993 v 9.46997 L 56,24.260193 V 21.59021 c 0,-2.27002 -1.849976,-4.119995 -4.119995,-4.119995 z"
         id="path1244"
         style="fill:#116466;fill-opacity:1" /><path
         d="M 54.415039,50.976013 33.753906,36.086853 c -1.048828,-0.755859 -2.458984,-0.755859 -3.507812,0 L 9.5844727,50.976013 9.5842286,50.976135 8,52.117798 v 1.471985 c 0,0.552246 0.4477539,1 1,1 h 46 c 0.552734,0 1,-0.447754 1,-1 v -1.471924 l -1.583435,-1.141174 c -4.88e-4,-3.67e-4 -10e-4,-3.06e-4 -0.0015,-6.72e-4 z"
         id="path1246"
         style="fill:#116466;fill-opacity:1" /><polygon
         points="25.596558,36.971985 8,26.586853 8,49.652344 14.538574,44.940369 14.539368,44.940002 "
         id="polygon1248"
         style="fill:#116466;fill-opacity:1" /><path
         d="m 27.76001,18.60022 c -0.08002,-0.04004 -0.190003,-0.06 -0.330017,-0.06 -0.279969,0 -0.669983,0.07996 -1.080017,0.279968 -0.829957,0.410035 -1.440003,1.220032 -1.539978,2.070008 -0.09003,0.690002 0.270019,1.799988 0.98999,1.900024 0.169983,0.01996 0.440002,0.01996 0.790039,-0.309997 0.859985,-0.800049 1.359985,-2.680054 1.339966,-3.660035 -0.06,-0.169983 -0.130005,-0.210022 -0.169983,-0.21997 z"
         id="path1250"
         style="fill:#116466;fill-opacity:1" /><path
         d="m 29.080017,34.460205 c 1.75,-1.26001 4.089966,-1.26001 5.839966,0 l 1.710022,1.229981 12.820007,-7.559998 V 13.410217 c 0,-0.559997 -0.440002,-1 -1,-1 h -8.070007 v -2 c 0,-0.5500485 -0.450012,-0.9999997 -1,-0.9999997 H 15.549988 c -0.549988,0 -1,0.4499512 -1,0.9999997 v 17.719971 l 12.820007,7.559998 z M 40.559998,17.510193 h 4.270019 c 0.559998,0 1,0.450012 1,1 0,0.559997 -0.440002,1 -1,1 h -4.270019 c -0.549988,0 -1,-0.440003 -1,-1 0,-0.549988 0.450012,-1 1,-1 z m 0,4.26001 h 4.270019 c 0.559998,0 1,0.450012 1,1 0,0.549987 -0.440002,1 -1,1 h -4.270019 c -0.549988,0 -1,-0.450013 -1,-1 0,-0.549988 0.450012,-1 1,-1 z m -17.489991,5.359985 c -1.72998,-0.979981 -2.97998,-2.580017 -3.510009,-4.48999 -0.52002,-1.919983 -0.279969,-3.919983 0.700012,-5.650025 0.97998,-1.72998 2.570007,-2.96997 4.48999,-3.5 3.909973,-1.089965 7.969971,1.180054 9.109985,5.050049 0.02002,0.03998 0.03003,0.07996 0.04004,0.130005 0.0099,0.01996 0.01996,0.03998 0.01996,0.06 0.01001,0.02997 0.01001,0.04999 0.01001,0.07996 0.359985,1.820007 -0.200012,3.630005 -1.48999,4.710022 -0.630005,0.520019 -1.409974,0.72998 -2.130005,0.570007 -0.650025,-0.140015 -1.190003,-0.559998 -1.529969,-1.179993 -0.240051,0.389954 -0.510009,0.739991 -0.830017,1.029969 -0.600036,0.570007 -1.299988,0.859985 -2.030029,0.859985 -0.130005,0 -0.26001,-0.0099 -0.389954,-0.02997 -1.890014,-0.26001 -2.920044,-2.340027 -2.710022,-4.119995 0.190003,-1.53003 1.210022,-2.919983 2.659973,-3.630005 0.420044,-0.200012 1.880005,-0.820008 3.119996,-0.23999 0.460022,0.20996 1.040039,0.659973 1.290039,1.609985 0.01001,0.03998 0.01996,0.07001 0.01996,0.109985 0.01001,0.04004 0.01001,0.08002 0.01001,0.109986 0.04999,0.76001 0.110046,1.160034 0.26001,1.970031 l 0.03003,0.169983 c 0.07996,0.429993 0.149963,0.830017 0.289978,1.140015 0.04999,0.09998 0.130005,0.219971 0.23999,0.25 0.119995,0.02002 0.27002,-0.03003 0.419983,-0.159973 0.860047,-0.720032 0.980042,-1.900025 0.809998,-2.77002 -0.799988,-2.890014 -3.789978,-4.600036 -6.689942,-3.799987 -1.400024,0.389953 -2.560058,1.299987 -3.280029,2.559997 -0.710022,1.269958 -0.900024,2.72998 -0.51001,4.130005 0.390015,1.399963 1.299988,2.570007 2.559998,3.279968 1.270019,0.720032 2.730041,0.900024 4.130005,0.520019 0.380005,-0.109985 0.75,-0.260009 1.100036,-0.440002 0.479981,-0.25 1.089966,-0.07001 1.349976,0.419983 0.25,0.48999 0.07001,1.090027 -0.419983,1.350037 -0.480042,0.25 -0.980042,0.449951 -1.490051,0.589965 -0.659973,0.190003 -1.329956,0.28003 -2,0.28003 -1.269959,0 -2.519959,-0.330017 -3.649964,-0.970032 z"
         id="path1252"
         style="fill:#116466;fill-opacity:1" /></g></g><g
     id="_x31_5-Send_Mail"
     transform="translate(-7.283293,-8.0581114)" /><g
     id="_x31_6-Important_Mail"
     transform="translate(-7.283293,-8.0581114)" /><g
     id="_x31_7-Mail_Chain"
     transform="translate(-7.283293,-8.0581114)" /><g
     id="_x31_8-Messaging"
     transform="translate(-7.283293,-8.0581114)" /><g
     id="_x31_9-Sending"
     transform="translate(-7.283293,-8.0581114)" /><g
     id="_x32_0-Chat"
     transform="translate(-7.283293,-8.0581114)" /><g
     id="_x32_1-Mail_Attachment"
     transform="translate(-7.283293,-8.0581114)" /><g
     id="_x32_2-Mobile_Link"
     transform="translate(-7.283293,-8.0581114)" /><g
     id="_x32_3-Smartphone"
     transform="translate(-7.283293,-8.0581114)" /><g
     id="_x32_4-Social_Media"
     transform="translate(-7.283293,-8.0581114)" /><g
     id="_x32_5-Support"
     transform="translate(-7.283293,-8.0581114)" /><g
     id="_x32_6-Links"
     transform="translate(-7.283293,-8.0581114)" /><g
     id="_x32_7-Phone"
     transform="translate(-7.283293,-8.0581114)" /><g
     id="_x32_8-Phone-2"
     transform="translate(-7.283293,-8.0581114)" /><g
     id="_x32_9-Map"
     transform="translate(-7.283293,-8.0581114)" /><g
     id="_x33_0-Location"
     transform="translate(-7.283293,-8.0581114)" /><g
     id="_x33_1-Write"
     transform="translate(-7.283293,-8.0581114)" /><g
     id="_x33_2-World"
     transform="translate(-7.283293,-8.0581114)" /><g
     id="_x33_3-Home"
     transform="translate(-7.283293,-8.0581114)" /><g
     id="_x33_4-Calendar"
     transform="translate(-7.283293,-8.0581114)" /><g
     id="_x33_5-Website"
     transform="translate(-7.283293,-8.0581114)" /><g
     id="_x33_6-Info"
     transform="translate(-7.283293,-8.0581114)" /><g
     id="_x33_7-Bull_Horn"
     transform="translate(-7.283293,-8.0581114)" /><g
     id="_x33_8-Profile"
     transform="translate(-7.283293,-8.0581114)" /><g
     id="_x33_9-Quote__x26__Answer"
     transform="translate(-7.283293,-8.0581114)" /><g
     id="_x34_0-Notification"
     transform="translate(-7.283293,-8.0581114)" /><g
     id="_x34_1-Share"
     transform="translate(-7.283293,-8.0581114)" /><g
     id="_x34_2-Time"
     transform="translate(-7.283293,-8.0581114)" /></svg>
