<?xml version="1.0" encoding="UTF-8" standalone="no"?>
<svg
   version="1.0"
   width="1280.000000pt"
   height="1280.000000pt"
   viewBox="0 0 1280.000000 1280.000000"
   preserveAspectRatio="xMidYMid meet"
   id="svg5685"
   sodipodi:docname="map1.svg"
   inkscape:version="1.2.2 (732a01da63, 2022-12-09)"
   xmlns:inkscape="http://www.inkscape.org/namespaces/inkscape"
   xmlns:sodipodi="http://sodipodi.sourceforge.net/DTD/sodipodi-0.dtd"
   xmlns="http://www.w3.org/2000/svg"
   xmlns:svg="http://www.w3.org/2000/svg">
  <defs
     id="defs5689" />
  <sodipodi:namedview
     id="namedview5687"
     pagecolor="#ffffff"
     bordercolor="#000000"
     borderopacity="0.25"
     inkscape:showpageshadow="2"
     inkscape:pageopacity="0.0"
     inkscape:pagecheckerboard="0"
     inkscape:deskcolor="#d1d1d1"
     inkscape:document-units="pt"
     showgrid="false"
     inkscape:zoom="0.48398438"
     inkscape:cx="854.36642"
     inkscape:cy="854.36642"
     inkscape:window-width="1920"
     inkscape:window-height="1013"
     inkscape:window-x="-9"
     inkscape:window-y="-9"
     inkscape:window-maximized="1"
     inkscape:current-layer="svg5685" />
  <metadata
     id="metadata5679">
Created by potrace 1.15, written by Peter Selinger 2001-2017
</metadata>
  <g
     transform="translate(0.000000,1280.000000) scale(0.100000,-0.100000)"
     fill="#000000"
     stroke="none"
     id="g5683"
     style="fill:#116466;fill-opacity:1">
    <path
       d="M6335 12360 c-516 -49 -1002 -220 -1425 -502 -175 -116 -281 -200 -419 -333 -193 -185 -350 -375 -478 -579 -474 -754 -590 -1678 -313 -2516 26 -80 241 -676 478 -1325 1892 -5186 2434 -6670 2436 -6672 2 -2 204 547 449 1219 245 673 890 2440 1433 3928 542 1488 1004 2757 1026 2820 328 963 133 2036 -516 2840 -100 125 -313 336 -446 443 -441 355 -936 572 -1505 658 -157 23 -560 34 -720 19z m498 -1415 c381 -67 721 -314 901 -654 158 -301 190 -666 85 -986 -153 -465 -564 -804 -1051 -865 -295 -37 -607 38 -861 207 -95 63 -249 213 -320 310 -238 331 -301 753 -172 1140 65 195 159 347 305 493 184 185 418 308 673 355 102 18 333 18 440 0z"
       id="path5681"
       style="fill:#116466;fill-opacity:1" />
  </g>
</svg>
